<?xml version="1.0" standalone="no"?>
<!DOCTYPE svg PUBLIC "-//W3C//DTD SVG 20010904//EN"
 "http://www.w3.org/TR/2001/REC-SVG-20010904/DTD/svg10.dtd">
<svg version="1.0" xmlns="http://www.w3.org/2000/svg"
 width="700.000000pt" height="700.000000pt" viewBox="0 0 700.000000 700.000000"
 preserveAspectRatio="xMidYMid meet">
<metadata>
Created by potrace 1.14, written by Peter Selinger 2001-2017
</metadata>
<g transform="translate(0.000000,700.000000) scale(0.100000,-0.100000)"
fill="#000000" stroke="none">
<path d="M981 5649 c-123 -24 -240 -131 -269 -248 -9 -35 -9 -2614 0 -2671 74
-469 315 -851 698 -1107 169 -113 432 -214 620 -238 30 -4 64 -9 75 -12 56
-12 318 -4 404 12 9 1 36 6 61 10 164 25 418 129 570 234 77 53 195 148 229
185 l24 25 -37 46 c-55 66 -142 208 -187 304 -43 91 -99 245 -99 274 0 27 -13
20 -40 -25 -50 -83 -174 -194 -300 -270 -38 -22 -171 -76 -205 -81 -16 -3 -52
-10 -80 -16 -80 -16 -278 -7 -367 18 -279 76 -511 285 -605 545 -42 117 -55
189 -55 311 0 111 4 137 32 242 77 283 296 511 582 607 111 37 261 49 393 33
328 -41 621 -287 723 -607 32 -101 41 -181 43 -375 1 -100 8 -218 16 -265 74
-441 415 -871 857 -1081 224 -106 432 -152 686 -153 82 0 191 8 236 18 12 2
39 7 60 10 175 28 411 128 588 249 50 34 138 108 196 164 204 198 345 429 418
688 48 167 57 241 57 455 -1 178 -2 193 -40 370 -23 107 -113 321 -178 423
-20 32 -37 61 -37 66 0 5 -3 11 -7 13 -5 2 -28 30 -53 63 -112 151 -257 283
-430 389 -89 54 -258 136 -282 136 -8 0 -18 4 -23 9 -11 10 -194 56 -257 65
-109 16 -152 19 -243 20 -185 0 -351 -26 -510 -79 -86 -29 -249 -105 -330
-154 l-50 -30 -1 577 c-1 569 -1 578 -23 634 -31 80 -98 151 -179 190 -171 81
-378 5 -460 -169 l-27 -58 -3 -476 -3 -477 38 -23 c32 -19 99 -68 177 -129 46
-35 205 -200 247 -255 124 -162 234 -363 295 -539 l37 -107 33 50 c143 211
389 362 637 388 288 31 548 -59 745 -258 176 -177 264 -401 257 -654 -3 -133
-5 -142 -41 -255 -103 -328 -397 -572 -739 -615 -56 -7 -189 -8 -221 -1 -12 2
-39 7 -60 10 -62 10 -108 24 -186 58 -238 101 -421 301 -502 549 -29 92 -35
123 -41 242 -10 200 -28 350 -49 407 -3 8 -7 26 -10 40 -8 47 -68 205 -108
285 -208 414 -581 714 -1028 824 -238 58 -456 63 -700 15 -169 -34 -388 -124
-534 -219 l-22 -15 1 548 c0 301 -3 565 -8 587 -26 126 -141 248 -255 270 -55
10 -112 12 -151 4z"/>
</g>
</svg>
